<svg xmlns="http://www.w3.org/2000/svg" xmlns:xlink="http://www.w3.org/1999/xlink" xml:space="preserve" viewBox="0 0 84.8 84.8"><switch><g><path fill="#00BFD6" d="M0 42.4c0 23.4 19 42.4 42.4 42.4s42.4-19 42.4-42.4S65.8 0 42.4 0 0 19 0 42.4"/><defs><path id="a" d="M0 42.4c0 23.4 19 42.4 42.4 42.4s42.4-19 42.4-42.4S65.8 0 42.4 0 0 19 0 42.4"/></defs><clipPath id="b"><use xlink:href="#a" overflow="visible"/></clipPath><g fill="#FFF" clip-path="url(#b)"><path d="M6 18.3h3.1V32H6zM20.8 31.9v-6.5l-1.9 3.4h-2.1l-2-3.4v6.5h-3.3V18.3h3.3l3 6 3.1-6h3.3v13.6zM34.5 31.9l-.6-2h-4.2l-.7 2h-3.5l5-13.7H33l5 13.7h-3.5zm-2.7-8.4-1.2 3.6H33l-1.2-3.6zM47.3 30.5c-1 1-2.2 1.6-3.9 1.6-1.6 0-2.8-.5-3.8-1.5-1.4-1.4-1.4-3.4-1.4-5.4 0-2.1-.1-4 1.4-5.4 1-1 2.2-1.5 3.8-1.5 2 0 3 .5 4.2 1.7l-2.3 2.3c-.7-.7-1.1-1-1.9-1-.6 0-1.1.3-1.3.6-.3.4-.5.9-.5 3.4s.2 3 .5 3.4c.3.3.7.6 1.3.6.7 0 1.1-.2 1.4-.5.4-.4.5-1 .5-1.5v-.2h-1.9v-2.8h5.2v1.8c.1 2-.2 3.3-1.3 4.4M50.5 18.3h3.4V32h-3.4zM63.9 31.9l-4.4-6.8v6.8h-3.3V18.3h2.9l4.4 6.8v-6.8h3.3v13.6zM11.7 37.9v10.7H8.3V37.9H4.9v-3H15v3zM23.4 48.6v-5.4h-3.5v5.4h-3.4V34.9h3.4v5.3h3.5v-5.3h3.4v13.7zM29.1 48.6V34.9h9.3v3h-5.9v2.3h5v3h-5v2.4h5.9v3zM9.1 54.6V57h5.1v3H9.1v5.3H5.8V51.6h9.3v3zM21.7 65.4c-2.8 0-5.2-1.9-5.2-4.9v-8.9h3.4v8.8c0 1.3.7 2 1.8 2s1.8-.7 1.8-2v-8.8h3.4v8.9c0 3-2.4 4.9-5.2 4.9M35 54.6v10.7h-3.4V54.6h-3.3v-3h10.1v3zM44.9 65.4c-2.8 0-5.2-1.9-5.2-4.9v-8.9h3.4v8.8c0 1.3.7 2 1.8 2s1.8-.7 1.8-2v-8.8h3.4v8.9c0 3-2.4 4.9-5.2 4.9M59.2 65.3l-2.4-5.1h-1.1v5.1h-3.4V51.6h5.4c3 0 4.7 2.1 4.7 4.4 0 1.9-1.2 3-2.2 3.6l3 5.7h-4zm-1.6-10.7h-1.9v2.8h1.9c.9 0 1.5-.7 1.5-1.4-.1-.7-.6-1.4-1.5-1.4M64.5 65.3V51.6h9.3v3h-5.9v2.3h5v3h-5v2.4h5.9v3zM77.6 65.3c-1.1 0-2-.9-2-2s.9-2 2-2 2 .9 2 2-.9 2-2 2M69.2 31.9V18.3h9.3v3h-5.9v2.3h5v3h-5V29h5.9v2.9z"/></g></g></switch></svg>